nColumns=19
nRows=69
DataType=double
version=3
OpenSimVersion=4.1
endheader
time	ground_force_1_vx	ground_force_1_vy	ground_force_1_vz	ground_force_1_px	ground_force_1_py	ground_force_1_pz	ground_force_1_mx	ground_force_1_my	ground_force_1_mz	ground_force_2_vx	ground_force_2_vy	ground_force_2_vz	ground_force_2_px	ground_force_2_py	ground_force_2_pz	ground_force_2_mx	ground_force_2_my	ground_force_2_mz
1.23333	0	0	0	-0.000565441	0	0.000507012	0	0	0	0	0	0	-0.000565419	0	0.000506945	0	0	0
1.24167	0	0	0	-0.000565445	0	0.000507012	0	0	0	0	0	0	-0.000565422	0	0.000506944	0	0	0
1.25	0	0	0	-0.000565448	0	0.000507011	0	0	0	-8.42647	27.3221	1.39217	1.31245	0	-0.336661	-0	0.596779	-0
1.25833	0	0	0	-0.000565451	0	0.00050701	0	0	0	-29.7744	78.0263	5.41589	1.30309	0	-0.373146	0	-0.625025	0
1.26667	0	0	0	-0.000565455	0	0.000507009	0	0	0	-67.1311	181.297	15.1712	1.30448	0	-0.375952	0	-2.09432	0
1.275	0	0	0	-0.000565458	0	0.000507008	0	0	0	-105.074	330.459	29.9159	1.30239	0	-0.369949	0	-3.36938	0
1.28333	0	0	0	-0.000565461	0	0.000507007	0	0	0	-116.883	497.116	42.9422	1.28612	0	-0.363479	0	-3.97176	0
1.29167	0	0	0	-0.000565465	0	0.000507007	0	0	0	-104.041	674.065	45.4074	1.25426	0	-0.3598	0	-3.5733	0
1.3	0	0	0	-0.000565468	0	0.000507006	0	0	0	-101.33	867.742	35.5222	1.22255	0	-0.358293	0	-2.15246	0
1.30833	0	0	0	-0.000565471	0	0.000507005	0	0	0	-129.971	1067.37	20.9378	1.20253	0	-0.355879	0	-0.026024	0
1.31667	0	0	0	-0.000565475	0	0.000507004	0	0	0	-171.271	1251.6	9.6958	1.18806	0	-0.351965	-0	2.26455	-0
1.325	0	0	0	-0.000565478	0	0.000507003	0	0	0	-190.419	1402.86	2.83831	1.16949	0	-0.34881	-0	4.14189	-0
1.33333	0	0	0	-0.000565481	0	0.000507002	0	0	0	-178.036	1515.3	-1.35092	1.14608	0	-0.34799	-0	5.16838	-0
1.34167	0	0	0	-0.000565484	0	0.000507002	0	0	0	-153.456	1595.65	-0.610083	1.12312	0	-0.348777	-0	5.16637	-0
1.35	0	0	0	-0.000565488	0	0.000507001	0	0	0	-131.105	1654.64	8.41859	1.10277	0	-0.349259	-0	4.26865	-0
1.35833	0	0	0	-0.000565491	0	0.000507	0	0	0	-106.362	1694.7	22.3604	1.08261	0	-0.348715	-0	2.87575	-0
1.36667	0	0	0	-0.000565494	0	0.000506999	0	0	0	-71.3576	1708.94	31.7699	1.06068	0	-0.348069	-0	1.51139	-0
1.375	0	0	0	-0.000565497	0	0.000506998	0	0	0	-28.5525	1691.69	30.9585	1.03777	0	-0.348161	-0	0.631698	-0
1.38333	0	0	0	-0.000565501	0	0.000506998	0	0	0	12.5053	1645.38	23.6714	1.01569	0	-0.348438	-0	0.487897	-0
1.39167	0	0	0	-0.000565504	0	0.000506997	0	0	0	47.7487	1576.77	17.0813	0.994697	0	-0.347658	-0	1.09955	-0
1.4	0	0	0	-0.000565507	0	0.000506996	0	0	0	80.5275	1487.95	12.815	0.973858	0	-0.345656	-0	2.30783	-0
1.40833	0	0	0	-0.00056551	0	0.000506995	0	0	0	114.009	1375.93	6.8499	0.952574	0	-0.34352	-0	3.84148	-0
1.41667	0	0	0	-0.000565513	0	0.000506994	0	0	0	144.823	1240.21	-3.09523	0.931148	0	-0.342053	-0	5.36849	-0
1.425	0	0	0	-0.000565517	0	0.000506994	0	0	0	166.297	1088.04	-13.6671	0.910314	0	-0.340778	-0	6.55446	-0
1.43333	0	0	0	-0.00056552	0	0.000506993	0	0	0	175.901	930.847	-20.0492	0.890236	0	-0.338625	-0	7.1397	-0
1.44167	0	0	0	-0.000565523	0	0.000506992	0	0	0	174.907	775.21	-21.515	0.870634	0	-0.335478	-0	7.00558	-0
1.45	0	0	0	-0.000565526	0	0.000506991	0	0	0	163.807	623.167	-21.149	0.851613	0	-0.332558	-0	6.19096	-0
1.45833	0	0	0	-0.000565529	0	0.00050699	0	0	0	142.894	479.866	-21.2717	0.833992	0	-0.331099	-0	4.85523	-0
1.46667	0	0	0	-0.000565532	0	0.00050699	0	0	0	116.077	354.093	-21.0931	0.81861	0	-0.330703	-0	3.22112	-0
1.475	0	0	0	-0.000565535	0	0.000506989	0	0	0	89.7996	251.353	-18.9248	0.80513	0	-0.329136	-0	1.52738	-0
1.48333	0	0	0	-0.000565538	0	0.000506988	0	0	0	67.2838	170.146	-15.1377	0.794115	0	-0.324652	0	-0.0053	0
1.49167	0	0	0	-0.000565541	0	0.000506987	0	0	0	47.9022	106.52	-11.8333	0.789697	0	-0.318315	0	-1.20484	0
1.5	0	0	0	-0.000565544	0	0.000506987	0	0	0	31.39	59.2855	-10.0729	0.798769	0	-0.312535	0	-1.97355	0
1.50833	0	0	0	-0.000565547	0	0.000506986	0	0	0	19.0047	29.2389	-8.61519	0.832034	0	-0.302911	0	-2.29625	0
1.51667	0	0	0	-0.00056555	0	0.000506985	0	0	0	11.2008	14.562	-5.78415	0.904533	0	-0.256841	0	-2.22634	0
1.525	0	0	0	-0.000565553	0	0.000506984	0	0	0	0	0	0	-0.000565522	0	0.000506891	0	0	0
1.53333	0	0	0	-0.000565556	0	0.000506984	0	0	0	0	0	0	-0.000565524	0	0.000506889	0	0	0
1.54167	0	0	0	-0.000565559	0	0.000506983	0	0	0	0	0	0	-0.000565527	0	0.000506888	0	0	0
1.55	0	0	0	-0.000565562	0	0.000506982	0	0	0	0	0	0	-0.00056553	0	0.000506887	0	0	0
1.55833	0	0	0	-0.000565565	0	0.000506981	0	0	0	0	0	0	-0.000565532	0	0.000506885	0	0	0
1.56667	0	0	0	-0.000565568	0	0.000506981	0	0	0	0	0	0	-0.000565535	0	0.000506884	0	0	0
1.575	0	0	0	-0.00056557	0	0.00050698	0	0	0	0	0	0	-0.000565538	0	0.000506882	0	0	0
1.58333	0	0	0	-0.000565573	0	0.000506979	0	0	0	0	0	0	-0.00056554	0	0.000506881	0	0	0
1.59167	0	0	0	-0.000565576	0	0.000506979	0	0	0	0	0	0	-0.000565543	0	0.00050688	0	0	0
1.6	0	0	0	-0.000565579	0	0.000506978	0	0	0	0	0	0	-0.000565545	0	0.000506878	0	0	0
1.60833	-4.79403	15.4733	-6.40571	1.28452	0	-0.160564	0	-3.26997	0	0	0	0	-0.000565548	0	0.000506877	0	0	0
1.61667	-18.2486	44.9705	-13.1958	1.29842	0	-0.233933	0	-2.3091	0	0	0	0	-0.00056555	0	0.000506876	0	0	0
1.625	-50.9873	113.728	-23.9319	1.3144	0	-0.26003	0	-0.661701	0	0	0	0	-0.000565553	0	0.000506874	0	0	0
1.63333	-99.6812	228.571	-36.657	1.32371	0	-0.268369	-0	1.35586	-0	0	0	0	-0.000565555	0	0.000506873	0	0	0
1.64167	-134.66	365.395	-48.4856	1.31925	0	-0.272241	-0	3.24781	-0	0	0	0	-0.000565558	0	0.000506872	0	0	0
1.65	-130.084	504.946	-57.0137	1.29497	0	-0.276443	-0	4.47254	-0	0	0	0	-0.00056556	0	0.000506871	0	0	0
1.65833	-108.251	660.499	-59.8244	1.25919	0	-0.281703	-0	4.61074	-0	0	0	0	-0.000565562	0	0.000506869	0	0	0
1.66667	-108.705	841.131	-53.7482	1.22983	0	-0.286466	-0	3.51869	-0	0	0	0	-0.000565565	0	0.000506868	0	0	0
1.675	-138.401	1029.54	-37.1851	1.21054	0	-0.290278	-0	1.41319	-0	0	0	0	-0.000565567	0	0.000506867	0	0	0
1.68333	-173.32	1199.54	-13.6152	1.19361	0	-0.293734	0	-1.16036	0	0	0	0	-0.000565569	0	0.000506866	0	0	0
1.69167	-185.801	1339.15	8.74722	1.17282	0	-0.296713	0	-3.49099	0	0	0	0	-0.000565572	0	0.000506864	0	0	0
1.7	-172.739	1451.33	21.8347	1.14902	0	-0.298791	0	-4.94426	0	0	0	0	-0.000565574	0	0.000506863	0	0	0
1.70833	-147.536	1543.42	22.9946	1.12565	0	-0.299882	0	-5.17994	0	0	0	0	-0.000565576	0	0.000506862	0	0	0
1.71667	-118.967	1617.32	16.093	1.10381	0	-0.300107	0	-4.24787	0	0	0	0	-0.000565578	0	0.000506861	0	0	0
1.725	-88.1653	1668.13	7.74884	1.08252	0	-0.299811	0	-2.53054	0	0	0	0	-0.00056558	0	0.00050686	0	0	0
1.73333	-53.3076	1692.46	2.5391	1.06066	0	-0.299412	0	-0.57937	0	0	0	0	-0.000565582	0	0.000506859	0	0	0
1.74167	-14.5777	1690.25	1.26212	1.03857	0	-0.299274	-0	1.07014	-0	0	0	0	-0.000565585	0	0.000506858	0	0	0
1.75	25.7508	1662.41	2.56178	1.01684	0	-0.299537	-0	2.0349	-0	0	0	0	-0.000565587	0	0.000506856	0	0	0
1.75833	65.8309	1610.39	5.16641	0.995333	0	-0.300049	-0	2.14662	-0	0	0	0	-0.000565589	0	0.000506855	0	0	0
1.76667	103.995	1535.03	8.63883	0.973856	0	-0.300621	-0	1.44948	-0	0	0	0	-0.000565591	0	0.000506854	0	0	0
1.775	139.528	1436.47	12.8675	0.95226	0	-0.301164	-0	0.155638	-0	0	0	0	-0.000565593	0	0.000506853	0	0	0
1.78333	169.86	1315.66	17.4455	0.930747	0	-0.301714	0	-1.42181	0	0	0	0	-0.000565595	0	0.000506852	0	0	0
1.79167	191.958	1175.82	21.6133	0.909612	0	-0.302309	0	-2.94349	0	0	0	0	-0.000565597	0	0.000506851	0	0	0
1.8	203.281	1021.6	24.6072	0.888966	0	-0.3029	0	-4.11374	0	0	0	0	-0.000565598	0	0.00050685	0	0	0
